<svg width="122" height="19" viewBox="0 0 122 19" fill="none" xmlns="http://www.w3.org/2000/svg">
<path d="M8.75763 0.877335C9.10346 0.221878 10.0422 0.221878 10.388 0.877335L12.7419 5.33878C12.8753 5.59155 13.1183 5.76816 13.3999 5.81688L18.3704 6.6769C19.1007 6.80325 19.3908 7.69603 18.8742 8.22748L15.3585 11.8448C15.1594 12.0498 15.0665 12.3355 15.1072 12.6184L15.8252 17.6114C15.9307 18.3449 15.1713 18.8967 14.5062 18.5697L9.97952 16.3439C9.72305 16.2178 9.42259 16.2178 9.16613 16.3439L4.63941 18.5697C3.97437 18.8967 3.21492 18.3449 3.32041 17.6114L4.03845 12.6184C4.07913 12.3355 3.98629 12.0498 3.7871 11.8448L0.271402 8.22748C-0.24511 7.69603 0.0449723 6.80325 0.775214 6.6769L5.7457 5.81688C6.02731 5.76816 6.27038 5.59155 6.40374 5.33878L8.75763 0.877335Z" fill="#FF7100"/>
<path d="M59.9045 0.958927C60.2455 0.284524 61.2086 0.284525 61.5496 0.958928L63.7597 5.32993C63.8901 5.58788 64.134 5.76971 64.4184 5.82106L69.1465 6.6747C69.8641 6.80426 70.1542 7.67633 69.6572 8.20992L66.2674 11.8494C66.0786 12.0521 65.991 12.329 66.0288 12.6034L66.7155 17.5861C66.8173 18.3249 66.0452 18.8725 65.3817 18.532L61.1478 16.3597C60.8837 16.2242 60.5704 16.2242 60.3063 16.3597L56.0724 18.532C55.4089 18.8725 54.6368 18.3249 54.7386 17.5861L55.4253 12.6034C55.4632 12.329 55.3755 12.0521 55.1867 11.8494L51.7969 8.20992C51.3 7.67633 51.5901 6.80426 52.3076 6.6747L57.0357 5.82106C57.3201 5.76971 57.564 5.58788 57.6945 5.32993L59.9045 0.958927Z" fill="#FF7100"/>
<path d="M34.5652 0.877335C34.9111 0.221878 35.8498 0.221878 36.1956 0.877335L38.5495 5.33878C38.6829 5.59155 38.926 5.76816 39.2076 5.81688L44.178 6.6769C44.9083 6.80325 45.1984 7.69603 44.6819 8.22748L41.1662 11.8448C40.967 12.0498 40.8741 12.3355 40.9148 12.6184L41.6328 17.6114C41.7383 18.3449 40.9789 18.8967 40.3138 18.5697L35.7871 16.3439C35.5307 16.2178 35.2302 16.2178 34.9737 16.3439L30.447 18.5697C29.782 18.8967 29.0225 18.3449 29.128 17.6114L29.8461 12.6184C29.8868 12.3355 29.7939 12.0498 29.5947 11.8448L26.079 8.22748C25.5625 7.69603 25.8526 6.80325 26.5828 6.6769L31.5533 5.81688C31.8349 5.76816 32.078 5.59155 32.2114 5.33878L34.5652 0.877335Z" fill="#FF7100"/>
<path d="M85.2576 0.877335C85.6035 0.221878 86.5422 0.221878 86.888 0.877335L89.2419 5.33878C89.3753 5.59155 89.6183 5.76816 89.8999 5.81688L94.8704 6.6769C95.6007 6.80325 95.8908 7.69603 95.3742 8.22748L91.8585 11.8448C91.6594 12.0498 91.5665 12.3355 91.6072 12.6184L92.3252 17.6114C92.4307 18.3449 91.6713 18.8967 91.0062 18.5697L86.4795 16.3439C86.223 16.2178 85.9226 16.2178 85.6661 16.3439L81.1394 18.5697C80.4744 18.8967 79.7149 18.3449 79.8204 17.6114L80.5385 12.6184C80.5791 12.3355 80.4863 12.0498 80.2871 11.8448L76.7714 8.22748C76.2549 7.69603 76.545 6.80325 77.2752 6.6769L82.2457 5.81688C82.5273 5.76816 82.7704 5.59155 82.9037 5.33878L85.2576 0.877335Z" fill="#FF7100"/>
<path d="M111.065 0.877335C111.411 0.221878 112.35 0.221878 112.696 0.877335L115.05 5.33878C115.183 5.59155 115.426 5.76816 115.708 5.81688L120.678 6.6769C121.408 6.80325 121.698 7.69603 121.182 8.22748L117.666 11.8448C117.467 12.0498 117.374 12.3355 117.415 12.6184L118.133 17.6114C118.238 18.3449 117.479 18.8967 116.814 18.5697L112.287 16.3439C112.031 16.2178 111.73 16.2178 111.474 16.3439L106.947 18.5697C106.282 18.8967 105.523 18.3449 105.628 17.6114L106.346 12.6184C106.387 12.3355 106.294 12.0498 106.095 11.8448L102.579 8.22748C102.063 7.69603 102.353 6.80325 103.083 6.6769L108.053 5.81688C108.335 5.76816 108.578 5.59155 108.711 5.33878L111.065 0.877335Z" fill="url(#paint0_linear_151_4013)"/>
<defs>
<linearGradient id="paint0_linear_151_4013" x1="100.82" y1="10.3926" x2="151.974" y2="10.3926" gradientUnits="userSpaceOnUse">
<stop stop-color="#FF7100"/>
<stop offset="0.213217" stop-color="#FF7100" stop-opacity="0.550036"/>
<stop offset="0.264228" stop-color="#FF7100" stop-opacity="0.114895"/>
<stop offset="0.41845" stop-color="#FF7100" stop-opacity="0.101244"/>
<stop offset="0.863321" stop-color="#FF7100" stop-opacity="0"/>
</linearGradient>
</defs>
</svg>
