<svg width="18" height="18" viewBox="0 0 18 18" fill="none" xmlns="http://www.w3.org/2000/svg">
<path d="M16.4 8.18182L15.9 7.05682L14.8 6.54545L15.9 6.03409L16.4 4.90909L16.9 6.03409L18 6.54545L16.9 7.05682L16.4 8.18182ZM14 4.90909L13.24 3.23182L11.6 2.45455L13.24 1.67727L14 0L14.76 1.67727L16.4 2.45455L14.76 3.23182L14 4.90909ZM6 18C5.56 18 5.18347 17.8399 4.8704 17.5197C4.5568 17.199 4.4 16.8136 4.4 16.3636H7.6C7.6 16.8136 7.44347 17.199 7.1304 17.5197C6.8168 17.8399 6.44 18 6 18ZM2.8 15.5455V13.9091H9.2V15.5455H2.8ZM3 13.0909C2.08 12.5318 1.35013 11.7818 0.8104 10.8409C0.270133 9.9 0 8.87727 0 7.77273C0 6.06818 0.583467 4.61945 1.7504 3.42655C2.9168 2.23309 4.33333 1.63636 6 1.63636C7.66667 1.63636 9.0832 2.23309 10.2496 3.42655C11.4165 4.61945 12 6.06818 12 7.77273C12 8.87727 11.7301 9.9 11.1904 10.8409C10.6501 11.7818 9.92 12.5318 9 13.0909H3Z" fill="#A80038"/>
</svg>
