<svg width="270" height="87" viewBox="0 0 270 87" fill="none" xmlns="http://www.w3.org/2000/svg">
<path d="M53.736 16.6L57.768 18.584C55.0373 23.0213 51.7947 26.968 48.04 30.424C44.328 33.88 39.3787 37.3147 33.192 40.728C34.3867 46.9147 35.8587 51.864 37.608 55.576C39.3573 59.3307 41.64 61.4213 44.456 61.848V64.792C44.1147 64.8347 43.6667 64.856 43.112 64.856C40.2533 64.856 37.48 62.872 34.792 58.904C32.1467 54.936 29.7573 49.0693 27.624 41.304C25.7893 47.064 22.9947 51.6293 19.24 55C15.4853 58.328 11.5813 59.992 7.528 59.992C5.43733 59.992 3.70933 59.416 2.344 58.264C1.02133 57.1547 0.36 55.6187 0.36 53.656C0.36 51.6507 1.256 49.5813 3.048 47.448C4.84 45.3147 7.29333 43.5227 10.408 42.072L11.88 44.376C8.04 47.1067 6.12 49.6667 6.12 52.056C6.12 53.208 6.504 54.1467 7.272 54.872C8.04 55.5547 9.04267 55.896 10.28 55.896C13.1813 55.896 15.6773 54.68 17.768 52.248C19.9013 49.7733 21.8 45.464 23.464 39.32C25.5547 31.5973 27.688 26.5413 29.864 24.152C30.8453 23.0427 32.2747 21.8267 34.152 20.504C31.208 20.5893 28.2 21.1013 25.128 22.04C22.056 22.936 19.368 24.3013 17.064 26.136C14.76 27.928 13.608 29.9333 13.608 32.152C13.608 35.0107 14.9093 37.2933 17.512 39L16.232 40.984C13.8427 39.832 11.9653 38.3387 10.6 36.504C9.23467 34.6693 8.552 32.7707 8.552 30.808C8.552 28.12 10.024 25.5813 12.968 23.192C15.912 20.8027 19.5173 18.9467 23.784 17.624C28.0933 16.3013 32.3173 15.64 36.456 15.64C39.016 15.64 40.296 16.1947 40.296 17.304C40.296 18.0293 39.5493 18.9467 38.056 20.056C35.3253 22.104 33.2133 24.7707 31.72 28.056C30.2693 31.3413 29.0747 35.1813 28.136 39.576C33 37.784 37.6507 34.8187 42.088 30.68C46.568 26.4987 50.4507 21.8053 53.736 16.6ZM80.096 48.536L81.568 49.624C80.9707 50.904 79.8613 52.12 78.24 53.272C76.6613 54.424 75.2107 55 73.888 55C71.3707 55 70.112 53.6773 70.112 51.032C70.112 49.7947 70.432 48.3227 71.072 46.616L68.704 49.048C66.4 51.3947 64.3947 52.9733 62.688 53.784C61.024 54.5947 59.3813 55 57.76 55C56.1387 55 54.9013 54.552 54.048 53.656C53.2373 52.7173 52.832 51.4373 52.832 49.816C52.832 46.8293 53.984 43.8853 56.288 40.984C58.592 38.04 61.536 35.6507 65.12 33.816C68.704 31.9813 72.288 31.0427 75.872 31L76 33.112L73.312 33.688C69.4293 34.5413 65.9947 36.248 63.008 38.808C60.064 41.368 58.592 43.928 58.592 46.488C58.592 49.0053 59.616 50.264 61.664 50.264C63.584 50.264 65.952 48.92 68.768 46.232C71.584 43.544 73.9307 40.3867 75.808 36.76L78.496 38.36C75.8507 43.6933 74.528 47.0853 74.528 48.536C74.528 49.1333 74.72 49.6453 75.104 50.072C75.5307 50.456 75.936 50.648 76.32 50.648C76.7467 50.648 77.024 50.6267 77.152 50.584C77.28 50.5413 77.408 50.4987 77.536 50.456C77.664 50.3707 77.8133 50.264 77.984 50.136C78.1973 50.008 78.368 49.88 78.496 49.752C78.6667 49.624 78.9227 49.432 79.264 49.176C79.6053 48.92 79.8827 48.7067 80.096 48.536ZM107.344 50.328L108.816 51.544C107.024 54.5307 104.699 56.024 101.84 56.024C99.3653 56.024 98.128 54.808 98.128 52.376C98.128 50.968 98.7253 48.728 99.92 45.656C101.157 42.5413 101.776 40.4933 101.776 39.512C101.776 38.2747 100.987 37.656 99.408 37.656C97.8293 37.656 95.6747 39.3627 92.944 42.776C90.256 46.1467 87.9947 50.072 86.16 54.552L82.384 53.208C84.6027 42.072 90.4053 27.16 99.792 8.472L102.928 9.496C98.192 18.968 94.8 26.4987 92.752 32.088C90.6187 37.8907 89.0187 42.6907 87.952 46.488C91.2373 41.0693 94.0533 37.3147 96.4 35.224C98.7893 33.1333 100.859 32.088 102.608 32.088C105.765 32.088 107.344 33.2187 107.344 35.48C107.344 36.888 106.555 39.4053 104.976 43.032C103.397 46.6587 102.608 49.0693 102.608 50.264C102.608 51.4587 103.184 52.056 104.336 52.056C104.933 52.056 105.936 51.48 107.344 50.328ZM135.992 47.96L137.336 49.048C136.61 50.84 135.458 52.3547 133.88 53.592C132.344 54.8293 130.936 55.448 129.656 55.448C128.418 55.448 127.437 55.0213 126.712 54.168C125.986 53.272 125.624 52.12 125.624 50.712C125.624 49.304 125.858 47.4907 126.328 45.272C124.322 48.4293 122.168 50.904 119.864 52.696C117.56 54.488 115.618 55.384 114.04 55.384C111.65 55.384 110.456 53.6773 110.456 50.264C110.456 47.3627 111.437 43.6507 113.4 39.128C115.362 34.6053 116.792 31.9813 117.688 31.256L120.76 32.6C119.01 35.416 117.688 38.1893 116.792 40.92C115.896 43.6507 115.448 45.4853 115.448 46.424C115.448 47.32 115.725 48.0453 116.28 48.6C116.877 49.1547 117.56 49.432 118.328 49.432C120.034 49.432 122.146 47.8747 124.664 44.76C127.224 41.6027 129.826 36.9093 132.472 30.68L135.736 32.152C135.65 32.4933 134.669 34.968 132.792 39.576C130.957 44.184 130.04 46.9573 130.04 47.896C130.04 48.792 130.232 49.4747 130.616 49.944C131.042 50.4133 131.448 50.648 131.832 50.648C132.258 50.648 132.578 50.6267 132.792 50.584C133.005 50.5413 133.218 50.456 133.432 50.328C133.645 50.2 133.816 50.0933 133.944 50.008C134.114 49.9227 134.306 49.7733 134.52 49.56L135.032 49.112C135.117 48.984 135.266 48.792 135.48 48.536C135.736 48.2373 135.906 48.0453 135.992 47.96ZM156.435 32.344C157.502 32.344 158.376 32.7067 159.059 33.432C159.742 34.1573 160.083 35.096 160.083 36.248C160.083 38.552 158.76 40.984 156.115 43.544L154.579 42.328C155.176 41.0053 155.475 40.0453 155.475 39.448C155.475 38.296 154.835 37.72 153.555 37.72C152.275 37.72 151.059 38.5307 149.907 40.152C148.755 41.7733 147.39 44.2907 145.811 47.704C144.275 51.0747 143.102 53.464 142.291 54.872L138.643 53.272C140.99 47.9387 142.334 44.8027 142.675 43.864C143.827 40.536 144.403 36.312 144.403 31.192L147.987 30.232C147.859 33.0053 147.667 35.16 147.411 36.696C147.155 38.1893 146.536 40.6427 145.555 44.056C149.864 36.248 153.491 32.344 156.435 32.344ZM174.321 27.864C171.932 27.864 170.737 26.904 170.737 24.984C170.737 23.9173 171.036 23.0213 171.633 22.296C172.23 21.5707 172.998 21.208 173.937 21.208C174.876 21.208 175.644 21.4853 176.241 22.04C176.838 22.5947 177.137 23.32 177.137 24.216C177.137 25.112 176.881 25.944 176.369 26.712C175.857 27.48 175.174 27.864 174.321 27.864ZM173.489 46.744L174.769 47.832C173.745 49.7947 172.38 51.48 170.673 52.888C169.009 54.2533 167.494 54.936 166.129 54.936C163.74 54.936 162.545 53.272 162.545 49.944C162.545 45.8053 164.252 40.408 167.665 33.752C168.433 32.3013 168.881 31.448 169.009 31.192L171.761 32.856C170.865 34.4773 169.756 37.0587 168.433 40.6C167.153 44.1413 166.513 46.424 166.513 47.448C166.513 48.4293 166.726 49.1333 167.153 49.56C167.58 49.9867 168.092 50.2 168.689 50.2C169.841 50.2 171.441 49.048 173.489 46.744ZM187.926 43.224C191.169 38.36 193.985 35.0533 196.374 33.304C198.763 31.512 200.854 30.616 202.646 30.616C204.438 30.616 205.825 31.1707 206.806 32.28C207.787 33.3467 208.278 34.712 208.278 36.376C208.278 40.984 206.614 45.2507 203.286 49.176C200.001 53.0587 196.289 55 192.15 55C190.315 55 188.865 54.68 187.798 54.04L189.334 51.288C191.553 51.5867 192.939 51.736 193.494 51.736C195.798 51.736 197.953 50.392 199.958 47.704C201.963 45.016 202.966 42.264 202.966 39.448C202.966 38.3813 202.646 37.5067 202.006 36.824C201.409 36.0987 200.619 35.736 199.638 35.736C197.291 35.736 194.625 37.8053 191.638 41.944C188.694 46.0827 185.921 51.2027 183.318 57.304C180.758 63.448 178.518 69.976 176.598 76.888L172.758 75.544C172.843 75.288 173.654 73.0693 175.19 68.888C176.683 64.7493 178.155 60.632 179.606 56.536C183.617 45.272 185.622 39.1067 185.622 38.04C185.622 35.3093 185.067 32.8347 183.958 30.616L187.158 29.016C188.481 30.8507 189.142 32.792 189.142 34.84C189.142 36.8453 188.737 39.64 187.926 43.224ZM237.534 48.536L239.006 49.624C238.408 50.904 237.299 52.12 235.678 53.272C234.099 54.424 232.648 55 231.326 55C228.808 55 227.55 53.6773 227.55 51.032C227.55 49.7947 227.87 48.3227 228.51 46.616L226.142 49.048C223.838 51.3947 221.832 52.9733 220.126 53.784C218.462 54.5947 216.819 55 215.198 55C213.576 55 212.339 54.552 211.486 53.656C210.675 52.7173 210.27 51.4373 210.27 49.816C210.27 46.8293 211.422 43.8853 213.726 40.984C216.03 38.04 218.974 35.6507 222.558 33.816C226.142 31.9813 229.726 31.0427 233.31 31L233.438 33.112L230.75 33.688C226.867 34.5413 223.432 36.248 220.446 38.808C217.502 41.368 216.03 43.928 216.03 46.488C216.03 49.0053 217.054 50.264 219.102 50.264C221.022 50.264 223.39 48.92 226.206 46.232C229.022 43.544 231.368 40.3867 233.246 36.76L235.934 38.36C233.288 43.6933 231.966 47.0853 231.966 48.536C231.966 49.1333 232.158 49.6453 232.542 50.072C232.968 50.456 233.374 50.648 233.758 50.648C234.184 50.648 234.462 50.6267 234.59 50.584C234.718 50.5413 234.846 50.4987 234.974 50.456C235.102 50.3707 235.251 50.264 235.422 50.136C235.635 50.008 235.806 49.88 235.934 49.752C236.104 49.624 236.36 49.432 236.702 49.176C237.043 48.92 237.32 48.7067 237.534 48.536ZM266.894 47.256L268.238 48.28C267.299 50.1573 265.998 51.736 264.334 53.016C262.712 54.296 261.24 54.936 259.918 54.936C258.595 54.936 257.55 54.552 256.782 53.784C256.014 53.016 255.63 52.056 255.63 50.904C255.63 49.752 256.355 47.7467 257.806 44.888C259.299 41.9867 260.046 39.8533 260.046 38.488C260.046 37.8907 259.79 37.3573 259.278 36.888C258.808 36.376 258.232 36.12 257.55 36.12C255.374 36.12 253.176 37.784 250.958 41.112C248.739 44.3973 246.264 49.1547 243.534 55.384L239.694 54.04C240.504 49.0907 241.656 44.2693 243.15 39.576C244.686 34.84 246.094 31.448 247.374 29.4L249.998 30.232C248.803 33.2613 247.288 38.488 245.454 45.912C251.342 35.8427 256.76 30.808 261.71 30.808C262.776 30.808 263.651 31.1707 264.334 31.896C265.059 32.6213 265.422 33.4747 265.422 34.456C265.422 35.4373 265.294 36.3333 265.038 37.144C264.782 37.912 263.971 39.7467 262.606 42.648C261.283 45.5067 260.622 47.2987 260.622 48.024C260.622 48.7493 260.835 49.3253 261.262 49.752C261.688 50.136 262.094 50.328 262.478 50.328C262.862 50.328 263.182 50.264 263.438 50.136C263.694 50.008 263.971 49.816 264.27 49.56C264.611 49.304 264.91 49.0693 265.166 48.856C265.422 48.6427 265.72 48.3653 266.062 48.024C266.446 47.64 266.723 47.384 266.894 47.256Z" fill="black"/>
<path d="M195.92 82.2C194.493 82.2 193.273 81.9467 192.26 81.44C191.247 80.9333 190.467 80.2333 189.92 79.34C189.387 78.4333 189.12 77.3933 189.12 76.22C189.12 75.0333 189.32 73.9333 189.72 72.92C190.133 71.8933 190.72 71 191.48 70.24C192.24 69.48 193.147 68.8867 194.2 68.46C195.253 68.02 196.433 67.8 197.74 67.8C198.953 67.8 200.02 68 200.94 68.4C201.86 68.8 202.567 69.38 203.06 70.14L201.18 71.72C200.793 71.1867 200.3 70.78 199.7 70.5C199.1 70.22 198.387 70.08 197.56 70.08C196.667 70.08 195.86 70.2333 195.14 70.54C194.42 70.8467 193.807 71.28 193.3 71.84C192.793 72.3867 192.407 73.0267 192.14 73.76C191.873 74.48 191.74 75.2467 191.74 76.06C191.74 76.82 191.907 77.4933 192.24 78.08C192.573 78.6667 193.067 79.12 193.72 79.44C194.373 79.76 195.173 79.92 196.12 79.92C196.907 79.92 197.633 79.7867 198.3 79.52C198.98 79.2533 199.58 78.8467 200.1 78.3L201.62 79.94C200.94 80.7133 200.107 81.2867 199.12 81.66C198.147 82.02 197.08 82.2 195.92 82.2ZM210.401 82.14C209.534 82.14 208.741 81.9533 208.021 81.58C207.314 81.2067 206.748 80.6733 206.321 79.98C205.908 79.2733 205.701 78.4267 205.701 77.44C205.701 76.5333 205.848 75.7 206.141 74.94C206.448 74.18 206.874 73.52 207.421 72.96C207.968 72.4 208.601 71.9667 209.321 71.66C210.054 71.3533 210.854 71.2 211.721 71.2C212.614 71.2 213.381 71.36 214.021 71.68C214.674 72 215.168 72.4867 215.501 73.14C215.834 73.78 215.988 74.58 215.961 75.54C215.934 76.86 215.694 78.02 215.241 79.02C214.788 80.0067 214.154 80.7733 213.341 81.32C212.528 81.8667 211.548 82.14 210.401 82.14ZM211.041 80C211.761 80 212.394 79.8333 212.941 79.5C213.488 79.1533 213.921 78.68 214.241 78.08C214.561 77.48 214.721 76.7867 214.721 76C214.721 75.1733 214.474 74.52 213.981 74.04C213.488 73.56 212.794 73.32 211.901 73.32C211.194 73.32 210.561 73.4933 210.001 73.84C209.454 74.1733 209.021 74.64 208.701 75.24C208.381 75.84 208.221 76.5333 208.221 77.32C208.221 78.1467 208.468 78.8 208.961 79.28C209.454 79.76 210.148 80 211.041 80ZM213.661 82L214.141 79.56L214.821 76.72L215.161 73.86L215.661 71.32H218.161L216.041 82H213.661ZM222.532 82L224.812 70.64C225.039 69.52 225.512 68.64 226.232 68C226.952 67.3467 227.912 67.02 229.112 67.02C229.565 67.02 229.999 67.0733 230.412 67.18C230.825 67.2867 231.172 67.4467 231.452 67.66L230.432 69.48C230.072 69.1867 229.632 69.04 229.112 69.04C228.592 69.04 228.179 69.1867 227.872 69.48C227.565 69.7733 227.345 70.22 227.212 70.82L226.952 72.02L226.832 73.04L225.032 82H222.532ZM222.512 73.4L222.912 71.4H230.012L229.612 73.4H222.512ZM237.699 82.14C236.632 82.14 235.705 81.9467 234.919 81.56C234.132 81.16 233.519 80.6133 233.079 79.92C232.652 79.2133 232.439 78.3867 232.439 77.44C232.439 76.2267 232.705 75.1533 233.239 74.22C233.772 73.2867 234.499 72.5533 235.419 72.02C236.352 71.4733 237.412 71.2 238.599 71.2C239.599 71.2 240.465 71.3867 241.199 71.76C241.932 72.1333 242.499 72.6733 242.899 73.38C243.312 74.0733 243.519 74.9067 243.519 75.88C243.519 76.1333 243.505 76.3933 243.479 76.66C243.452 76.9267 243.412 77.1733 243.359 77.4H234.299L234.579 75.74H242.179L241.159 76.3C241.265 75.62 241.219 75.0533 241.019 74.6C240.819 74.1467 240.499 73.8 240.059 73.56C239.619 73.32 239.092 73.2 238.479 73.2C237.745 73.2 237.105 73.3733 236.559 73.72C236.025 74.0533 235.612 74.5333 235.319 75.16C235.025 75.7733 234.879 76.4933 234.879 77.32C234.879 78.1867 235.125 78.8533 235.619 79.32C236.125 79.7867 236.905 80.02 237.959 80.02C238.559 80.02 239.132 79.9267 239.679 79.74C240.225 79.54 240.679 79.2667 241.039 78.92L242.079 80.66C241.519 81.1533 240.852 81.5267 240.079 81.78C239.319 82.02 238.525 82.14 237.699 82.14Z" fill="black"/>
</svg>
